<svg width="22" height="22" viewBox="0 0 22 22" fill="none" xmlns="http://www.w3.org/2000/svg">
<path fill-rule="evenodd" clip-rule="evenodd" d="M10.9997 5.04168C10.9997 6.81405 9.56372 8.25001 7.79134 8.25001C6.01897 8.25001 4.58301 6.81405 4.58301 5.04168C4.58301 3.2693 6.01897 1.83334 7.79134 1.83334C9.56372 1.83334 10.9997 3.2693 10.9997 5.04168ZM1.83301 11.6417C1.83301 9.69101 5.80263 8.70834 7.79134 8.70834C9.02701 8.70834 11.0272 9.08784 12.3655 9.84272C11.5387 10.2749 10.8249 10.895 10.2814 11.6532C9.73782 12.4114 9.37978 13.2866 9.23601 14.2083H1.83301V11.6417ZM13.7497 10.5417C13.7497 10.4201 13.798 10.3035 13.8839 10.2176C13.9699 10.1316 14.0865 10.0833 14.208 10.0833H16.0413C16.1629 10.0833 16.2795 10.1316 16.3654 10.2176C16.4514 10.3035 16.4997 10.4201 16.4997 10.5417C16.4997 10.6632 16.4514 10.7798 16.3654 10.8658C16.2795 10.9517 16.1629 11 16.0413 11H15.583V11.9488C16.1137 12.0256 16.6167 12.2342 17.046 12.5556L17.6849 11.9167L17.5506 11.7824C17.4671 11.6959 17.4209 11.5802 17.422 11.46C17.423 11.3398 17.4712 11.2249 17.5562 11.1399C17.6412 11.0549 17.7562 11.0067 17.8763 11.0057C17.9965 11.0046 18.1123 11.0508 18.1987 11.1343L19.1154 12.051C19.1989 12.1374 19.2451 12.2532 19.244 12.3734C19.243 12.4935 19.1948 12.6085 19.1098 12.6935C19.0248 12.7784 18.9099 12.8267 18.7897 12.8277C18.6695 12.8287 18.5537 12.7825 18.4673 12.6991L18.333 12.5648L17.6941 13.2037C18.0155 13.633 18.2241 14.136 18.3009 14.6667H19.2497V14.2083C19.2497 14.0868 19.298 13.9702 19.3839 13.8843C19.4699 13.7983 19.5865 13.75 19.708 13.75C19.8296 13.75 19.9461 13.7983 20.0321 13.8843C20.1181 13.9702 20.1663 14.0868 20.1663 14.2083V16.0417C20.1663 16.1632 20.1181 16.2798 20.0321 16.3658C19.9461 16.4517 19.8296 16.5 19.708 16.5C19.5865 16.5 19.4699 16.4517 19.3839 16.3658C19.298 16.2798 19.2497 16.1632 19.2497 16.0417V15.5833H18.3009C18.2402 16.0037 18.0965 16.4078 17.8783 16.7723L18.7913 17.6853L18.9256 17.551C19.0121 17.4675 19.1279 17.4213 19.248 17.4223C19.3682 17.4234 19.4832 17.4716 19.5681 17.5566C19.6531 17.6415 19.7013 17.7565 19.7024 17.8767C19.7034 17.9968 19.6572 18.1126 19.5737 18.1991L18.6571 19.1157C18.5706 19.1992 18.4548 19.2454 18.3347 19.2444C18.2145 19.2433 18.0995 19.1951 18.0145 19.1101C17.9296 19.0252 17.8814 18.9102 17.8803 18.79C17.8793 18.6699 17.9255 18.5541 18.009 18.4676L18.1433 18.3333L17.2963 17.4868C16.8203 17.9246 16.2231 18.2083 15.583 18.3008V19.25H16.0413C16.1629 19.25 16.2795 19.2983 16.3654 19.3843C16.4514 19.4702 16.4997 19.5868 16.4997 19.7083C16.4997 19.8299 16.4514 19.9465 16.3654 20.0324C16.2795 20.1184 16.1629 20.1667 16.0413 20.1667H14.208C14.0865 20.1667 13.9699 20.1184 13.8839 20.0324C13.798 19.9465 13.7497 19.8299 13.7497 19.7083C13.7497 19.5868 13.798 19.4702 13.8839 19.3843C13.9699 19.2983 14.0865 19.25 14.208 19.25H14.6663V18.3013C14.1356 18.2244 13.6326 18.0158 13.2033 17.6944L12.5644 18.3333L12.6987 18.4676C12.7822 18.5541 12.8284 18.6699 12.8274 18.79C12.8263 18.9102 12.7781 19.0252 12.6931 19.1101C12.6082 19.1951 12.4932 19.2433 12.373 19.2444C12.2529 19.2454 12.1371 19.1992 12.0506 19.1157L11.134 18.1991C11.0505 18.1126 11.0043 17.9968 11.0053 17.8767C11.0064 17.7565 11.0546 17.6415 11.1395 17.5566C11.2245 17.4716 11.3395 17.4234 11.4597 17.4223C11.5798 17.4213 11.6956 17.4675 11.7821 17.551L11.9163 17.6853L12.5553 17.0463C12.2339 16.6171 12.0253 16.1141 11.9484 15.5833H10.9997V16.0417C10.9997 16.1632 10.9514 16.2798 10.8654 16.3658C10.7795 16.4517 10.6629 16.5 10.5413 16.5C10.4198 16.5 10.3032 16.4517 10.2173 16.3658C10.1313 16.2798 10.083 16.1632 10.083 16.0417V14.2083C10.083 14.0868 10.1313 13.9702 10.2173 13.8843C10.3032 13.7983 10.4198 13.75 10.5413 13.75C10.6629 13.75 10.7795 13.7983 10.8654 13.8843C10.9514 13.9702 10.9997 14.0868 10.9997 14.2083V14.6667H11.9484C12.0253 14.136 12.2339 13.633 12.5553 13.2037L11.9163 12.5648L11.7821 12.6991C11.6956 12.7825 11.5798 12.8287 11.4597 12.8277C11.3395 12.8267 11.2245 12.7784 11.1395 12.6935C11.0546 12.6085 11.0064 12.4935 11.0053 12.3734C11.0043 12.2532 11.0505 12.1374 11.134 12.051L12.0506 11.1343C12.1371 11.0508 12.2529 11.0046 12.373 11.0057C12.4932 11.0067 12.6082 11.0549 12.6931 11.1399C12.7781 11.2249 12.8263 11.3398 12.8274 11.46C12.8284 11.5802 12.7822 11.6959 12.6987 11.7824L12.5644 11.9167L13.2033 12.5556C13.6326 12.2342 14.1356 12.0256 14.6663 11.9488V11H14.208C14.0865 11 13.9699 10.9517 13.8839 10.8658C13.798 10.7798 13.7497 10.6632 13.7497 10.5417Z" fill="#2D9AD9"/>
</svg>
