<svg width="24" height="24" viewBox="0 0 24 24" fill="none" xmlns="http://www.w3.org/2000/svg">
<path d="M5.5 15.5C3.288 14.617 2 12.433 2 10.175C2 7.24499 4.317 4.34999 5.943 2.67999C6.826 1.77199 8.173 1.77199 9.057 2.67999C9.549 3.18499 9.965 3.80199 10.5 4.49899" stroke="#2D9AD9" stroke-width="1.5" stroke-linecap="round"/>
<path d="M8 14.926C8 11.37 10.949 7.85599 13.019 5.82599C14.143 4.72499 15.857 4.72499 16.981 5.82599C19.051 7.85599 22 11.37 22 14.926C22 18.413 19.35 22 15 22C10.65 22 8 18.413 8 14.926Z" stroke="#2D9AD9" stroke-width="1.5"/>
<path d="M18.5 15.5C18.5 17.71 17 18.5 15.5 18.5" stroke="#2D9AD9" stroke-width="1.5" stroke-linecap="round" stroke-linejoin="round"/>
</svg>
